<svg xmlns="http://www.w3.org/2000/svg"  viewBox="0 0 27.172 28.828" width="32px" height="32px"><path d="M 13.585938 0 L 12.878906 0.70703125 L 0.5859375 13 C -0.18646011 13.772631 -0.18646011 15.055494 0.5859375 15.828125 L 13.585938 28.828125 L 14.292969 28.121094 L 26.585938 15.828125 C 27.358335 15.055494 27.358335 13.772631 26.585938 13 L 13.585938 0 z M 13.638672 2.8808594 L 25.171875 14.414062 L 16.326172 23.259766 C 16.302757 22.660747 16.201061 22.095371 16.035156 21.597656 C 15.739458 20.710561 15.298665 19.984718 14.933594 19.480469 L 20 14.414062 L 14.292969 8.7070312 C 14.292969 8.7070312 13.450829 7.844674 13.035156 6.5976562 C 12.680798 5.534581 12.572787 4.311202 13.638672 2.8808594 z M 10.845703 5.5683594 C 10.869118 6.1673784 10.970814 6.7327539 11.136719 7.2304688 C 11.432417 8.1175643 11.87321 8.8434066 12.238281 9.3476562 L 7.171875 14.414062 L 7.8789062 15.121094 L 12.878906 20.121094 C 12.878906 20.121094 13.721046 20.983451 14.136719 22.230469 C 14.491077 23.293544 14.599088 24.516923 13.533203 25.947266 L 2 14.414062 L 10.845703 5.5683594 z M 13.585938 10.828125 L 17.171875 14.414062 L 13.585938 18 L 10 14.414062 L 13.585938 10.828125 z"/></svg>